# xmcd
#
# Track frame offsets:
#	150
#	12368
#	24008
#	36700
#	47808
#	62743
#	76361
#	93217
#	104264
#	117003
#	128242
#	141968
#	155820
#	169290
#
# Disc length: 2430 seconds
#
# Revision: 0
# Processed by: cddbd v1.5.2PL0 Copyright (c) Steve Scherf et al.
# Submitted via: EZCDAudioConverter 1.1.0.1
#
DISCID=b9097c0e
DTITLE=Various Artist - Blues Deluxe
DYEAR=2012
DGENRE=Blues
TTITLE0=Memphis Slim - Mother Earth
TTITLE1=Sonny Boy Williamson - Don't start me talking
TTITLE2=Tommy Tucker - Hi-Heel Sneakers
TTITLE3=Bo Diddley - Diddy Wah Diddy
TTITLE4=Willie Dixon - Pain in my heart
TTITLE5=Guitar Slim - The things i used to do
TTITLE6=Howlin´ Wolf - Sittin' on the top of the world
TTITLE7=Campion Jack Dupree - Shake, Baby, Shake
TTITLE8=Jackie Brenston and Ike Turner - Rocket 88
TTITLE9=Arthur "Big Boy" Crudup - My baby left me
TTITLE10=Big Bill Broonzy - Key to the highway
TTITLE11=Leroy Carr - How long, how long Blues
TTITLE12=Bo Carter - All around man
TTITLE13=Leadbelly - The midnight special
EXTD=
EXTT0=
EXTT1=
EXTT2=
EXTT3=
EXTT4=
EXTT5=
EXTT6=
EXTT7=
EXTT8=
EXTT9=
EXTT10=
EXTT11=
EXTT12=
EXTT13=
PLAYORDER=
